PathFileType	4	(X/Y/Z)	 2.8Hzlow3min.trc
DataRate	CameraRate	NumFrames	NumMarkers	Units	OrigDataRate	OrigDataStartFrame	OrigNumFrames
200	200	10	35	m	200	626	1000
Frame#	Time	C7			LSH			RSH			MAN			RASI			LASI			HIPR			HIPL			RPSI			LPSI			COX			RTHI1			RTHI2			RTHI3			RTHI4			RSHA1			RSHA2			RSHA3			RSHA4			RHEEL			RMET5			RMET1			RTOE			LTHI1			LTHI2			LTHI3			LTHI4			LSHA1			LSHA2			LSHA3			LSHA4			LHEEL			LMET5			LMET1			LTOE			
		X1	Y1	Z1	X2	Y2	Z2	X3	Y3	Z3	X4	Y4	Z4	X5	Y5	Z5	X6	Y6	Z6	X7	Y7	Z7	X8	Y8	Z8	X9	Y9	Z9	X10	Y10	Z10	X11	Y11	Z11	X12	Y12	Z12	X13	Y13	Z13	X14	Y14	Z14	X15	Y15	Z15	X16	Y16	Z16	X17	Y17	Z17	X18	Y18	Z18	X19	Y19	Z19	X20	Y20	Z20	X21	Y21	Z21	X22	Y22	Z22	X23	Y23	Z23	X24	Y24	Z24	X25	Y25	Z25	X26	Y26	Z26	X27	Y27	Z27	X28	Y28	Z28	X29	Y29	Z29	X30	Y30	Z30	X31	Y31	Z31	X32	Y32	Z32	X33	Y33	Z33	X34	Y34	Z34	X35	Y35	Z35	
626	3.1300	-0.298076	1.603654	-0.492554	-0.290865	1.591196	-0.709079	-0.227300	1.590994	-0.304775	-0.149235	1.533095	-0.515199	-0.153677	1.088004	-0.393644	-0.162538	1.083437	-0.612558	-0.209790	1.135432	-0.342012	-0.234837	1.132234	-0.667060	-0.340024	1.117236	-0.437912	-0.352075	1.110964	-0.549751	-0.351803	1.123461	-0.489784	-0.235403	0.838063	-0.303561	-0.219714	0.782170	-0.290794	-0.155362	0.797179	-0.293780	-0.164234	0.856385	-0.308040	-0.308869	0.410817	-0.263597	-0.326077	0.371265	-0.267008	-0.268244	0.353706	-0.273685	-0.256009	0.391875	-0.273816	-0.445912	0.075522	-0.322600	-0.261568	0.026389	-0.257430	-0.224009	0.041311	-0.351449	-0.193980	0.029790	-0.351867	-0.240830	0.827167	-0.714085	-0.224001	0.768451	-0.723236	-0.160617	0.780953	-0.722951	-0.168438	0.840139	-0.714138	-0.313233	0.373304	-0.723813	-0.331712	0.337366	-0.720805	-0.273310	0.315557	-0.711461	-0.261914	0.358048	-0.716270	-0.462555	0.067413	-0.642337	-0.294814	0.025967	-0.741939	-0.233224	0.037557	-0.661184	-0.205164	0.028413	-0.669682	
627	3.1350	-0.297784	1.602707	-0.492424	-0.290844	1.590132	-0.708935	-0.227041	1.589859	-0.304571	-0.148886	1.531854	-0.515066	-0.153859	1.086615	-0.393439	-0.162802	1.081874	-0.612432	-0.210182	1.133868	-0.341657	-0.235356	1.130578	-0.666869	-0.340165	1.116507	-0.437683	-0.352235	1.110247	-0.549544	-0.351964	1.122744	-0.489566	-0.235559	0.837173	-0.303674	-0.219911	0.781200	-0.290874	-0.155620	0.796340	-0.293614	-0.164480	0.855553	-0.307830	-0.309009	0.409888	-0.263887	-0.326212	0.370379	-0.267259	-0.268335	0.352843	-0.273975	-0.256140	0.391016	-0.274072	-0.446159	0.074703	-0.323124	-0.261669	0.026418	-0.257458	-0.224011	0.041318	-0.351467	-0.193918	0.029815	-0.351856	-0.241252	0.826243	-0.713587	-0.224498	0.767499	-0.722721	-0.161098	0.779976	-0.722687	-0.168857	0.839174	-0.713928	-0.313366	0.372378	-0.722980	-0.331849	0.336430	-0.719937	-0.273435	0.314621	-0.710634	-0.262045	0.357107	-0.715477	-0.462604	0.066470	-0.641384	-0.294940	0.026024	-0.741696	-0.233154	0.037581	-0.661098	-0.205076	0.028439	-0.669709	
628	3.1400	-0.297493	1.602127	-0.492290	-0.290817	1.589451	-0.708816	-0.226764	1.589120	-0.304336	-0.148605	1.531122	-0.514959	-0.153978	1.085696	-0.393280	-0.163025	1.080826	-0.612305	-0.210437	1.132909	-0.341336	-0.235774	1.129480	-0.666706	-0.340267	1.116143	-0.437450	-0.352369	1.109909	-0.549346	-0.352100	1.122379	-0.489332	-0.235684	0.836642	-0.303722	-0.220060	0.780605	-0.291010	-0.155823	0.795834	-0.293546	-0.164663	0.855066	-0.307697	-0.309250	0.409345	-0.264229	-0.326414	0.369825	-0.267660	-0.268512	0.352345	-0.274285	-0.256350	0.390530	-0.274320	-0.446299	0.074192	-0.323651	-0.261761	0.026454	-0.257517	-0.223987	0.041320	-0.351494	-0.193843	0.029846	-0.351862	-0.241556	0.825686	-0.713070	-0.224876	0.766909	-0.722154	-0.161456	0.779352	-0.722308	-0.169158	0.838559	-0.713612	-0.313505	0.371944	-0.722120	-0.331993	0.335987	-0.719077	-0.273574	0.314153	-0.709857	-0.262180	0.356641	-0.714697	-0.462554	0.065930	-0.640538	-0.295034	0.026089	-0.741432	-0.233049	0.037595	-0.661012	-0.204969	0.028477	-0.669731	
629	3.1450	-0.297209	1.601935	-0.492156	-0.290784	1.589164	-0.708719	-0.226478	1.588777	-0.304123	-0.148366	1.530888	-0.514890	-0.154039	1.085270	-0.393147	-0.163194	1.080327	-0.612176	-0.210550	1.132558	-0.341053	-0.236074	1.128956	-0.666564	-0.340322	1.116138	-0.437223	-0.352467	1.109954	-0.549152	-0.352205	1.122368	-0.489097	-0.235782	0.836470	-0.303752	-0.220170	0.780415	-0.291144	-0.155976	0.795656	-0.293547	-0.164786	0.854915	-0.307631	-0.309568	0.409200	-0.264604	-0.326703	0.369651	-0.268136	-0.268770	0.352222	-0.274595	-0.256628	0.390424	-0.274550	-0.446343	0.073997	-0.324131	-0.261837	0.026492	-0.257602	-0.223945	0.041300	-0.351516	-0.193762	0.029867	-0.351873	-0.241711	0.825515	-0.712554	-0.225098	0.766708	-0.721550	-0.161660	0.779100	-0.721803	-0.169308	0.838322	-0.713190	-0.313623	0.371981	-0.721279	-0.332123	0.336016	-0.718253	-0.273705	0.314140	-0.709146	-0.262296	0.356640	-0.713956	-0.462419	0.065780	-0.639832	-0.295088	0.026164	-0.741162	-0.232905	0.037569	-0.660900	-0.204846	0.028505	-0.669728	
630	3.1500	-0.296939	1.602128	-0.492029	-0.290754	1.589275	-0.708644	-0.226191	1.588825	-0.303979	-0.148166	1.531127	-0.514879	-0.154044	1.085328	-0.393027	-0.163301	1.080378	-0.612046	-0.210530	1.132782	-0.340812	-0.236251	1.129012	-0.666442	-0.340326	1.116487	-0.436998	-0.352520	1.110372	-0.548960	-0.352269	1.122710	-0.488865	-0.235868	0.836683	-0.303818	-0.220270	0.780610	-0.291230	-0.156085	0.795808	-0.293595	-0.164860	0.855091	-0.307617	-0.309946	0.409429	-0.265011	-0.327064	0.369852	-0.268648	-0.269098	0.352468	-0.274890	-0.256961	0.390681	-0.274756	-0.446289	0.074114	-0.324550	-0.261893	0.026527	-0.257706	-0.223881	0.041275	-0.351545	-0.193675	0.029890	-0.351896	-0.241697	0.825736	-0.712051	-0.225135	0.766907	-0.720934	-0.161685	0.779236	-0.721167	-0.169288	0.838479	-0.712659	-0.313707	0.372453	-0.720491	-0.332231	0.336476	-0.717499	-0.273809	0.314545	-0.708509	-0.262385	0.357060	-0.713260	-0.462208	0.066000	-0.639289	-0.295101	0.026245	-0.740893	-0.232729	0.037547	-0.660800	-0.204712	0.028517	-0.669694	
631	3.1550	-0.296692	1.602698	-0.491914	-0.290724	1.589791	-0.708584	-0.225916	1.589276	-0.303902	-0.147985	1.531779	-0.514900	-0.153993	1.085852	-0.392916	-0.163340	1.080967	-0.611918	-0.210386	1.133526	-0.340619	-0.236316	1.129625	-0.666330	-0.340273	1.117180	-0.436774	-0.352523	1.111149	-0.548770	-0.352283	1.123404	-0.488631	-0.235938	0.837236	-0.303876	-0.220369	0.781173	-0.291283	-0.156165	0.796293	-0.293673	-0.164900	0.855594	-0.307642	-0.310373	0.410013	-0.265410	-0.327478	0.370418	-0.269151	-0.269484	0.353060	-0.275155	-0.257338	0.391285	-0.274925	-0.446143	0.074536	-0.324882	-0.261930	0.026560	-0.257822	-0.223800	0.041243	-0.351579	-0.193587	0.029910	-0.351931	-0.241510	0.826340	-0.711581	-0.224975	0.767491	-0.720326	-0.161519	0.779764	-0.720417	-0.169098	0.839033	-0.712026	-0.313758	0.373283	-0.719772	-0.332301	0.337303	-0.716831	-0.273880	0.315323	-0.707937	-0.262442	0.357857	-0.712618	-0.461936	0.066561	-0.638907	-0.295080	0.026326	-0.740625	-0.232532	0.037517	-0.660715	-0.204574	0.028513	-0.669633	
632	3.1600	-0.296474	1.603621	-0.491817	-0.290724	1.590679	-0.708524	-0.225661	1.590138	-0.303855	-0.147825	1.532845	-0.514943	-0.153890	1.086848	-0.392787	-0.163296	1.082073	-0.611797	-0.210133	1.134718	-0.340465	-0.236290	1.130762	-0.666220	-0.340162	1.118203	-0.436543	-0.352470	1.112264	-0.548586	-0.352237	1.124423	-0.488409	-0.235992	0.838127	-0.303905	-0.220486	0.782079	-0.291323	-0.156233	0.797124	-0.293777	-0.164920	0.856424	-0.307693	-0.310837	0.410938	-0.265772	-0.327925	0.371308	-0.269634	-0.269917	0.353988	-0.275368	-0.257742	0.392221	-0.275042	-0.445910	0.075257	-0.325127	-0.261948	0.026591	-0.257945	-0.223710	0.041207	-0.351612	-0.193503	0.029920	-0.351973	-0.241174	0.827315	-0.711151	-0.224630	0.768455	-0.719744	-0.161175	0.780678	-0.719575	-0.168756	0.839967	-0.711308	-0.313788	0.374424	-0.719139	-0.332335	0.338441	-0.716255	-0.273923	0.316434	-0.707426	-0.262475	0.358984	-0.712028	-0.461612	0.067440	-0.638677	-0.295032	0.026405	-0.740355	-0.232327	0.037422	-0.660599	-0.204439	0.028494	-0.669549	
633	3.1650	-0.296287	1.604897	-0.491748	-0.290734	1.591950	-0.708464	-0.225433	1.591408	-0.303839	-0.147679	1.534243	-0.514993	-0.153736	1.088287	-0.392639	-0.163175	1.083659	-0.611681	-0.209787	1.136302	-0.340343	-0.236181	1.132378	-0.666114	-0.339993	1.119541	-0.436307	-0.352356	1.113699	-0.548405	-0.352127	1.125764	-0.488198	-0.236072	0.839389	-0.303974	-0.220627	0.783332	-0.291329	-0.156312	0.798273	-0.293873	-0.164938	0.857567	-0.307758	-0.311341	0.412159	-0.266111	-0.328425	0.372530	-0.270012	-0.270384	0.355234	-0.275513	-0.258207	0.393445	-0.275196	-0.445595	0.076266	-0.325277	-0.261949	0.026616	-0.258070	-0.223616	0.041165	-0.351643	-0.193429	0.029917	-0.352010	-0.240715	0.828639	-0.710774	-0.224144	0.769774	-0.719206	-0.160694	0.781952	-0.718662	-0.168297	0.841264	-0.710526	-0.313813	0.375820	-0.718597	-0.332355	0.339837	-0.715770	-0.273945	0.317833	-0.706960	-0.262505	0.360392	-0.711485	-0.461245	0.068593	-0.638573	-0.294964	0.026482	-0.740077	-0.232129	0.037331	-0.660487	-0.204312	0.028475	-0.669457	
634	3.1700	-0.296133	1.606500	-0.491705	-0.290741	1.593591	-0.708404	-0.225244	1.593080	-0.303837	-0.147569	1.535950	-0.515057	-0.153522	1.090101	-0.392500	-0.162974	1.085673	-0.611569	-0.209357	1.138231	-0.340259	-0.236005	1.134429	-0.666005	-0.339765	1.121187	-0.436067	-0.352179	1.115436	-0.548226	-0.351949	1.127396	-0.487997	-0.236175	0.840993	-0.304017	-0.220810	0.784906	-0.291329	-0.156417	0.799738	-0.293958	-0.164967	0.859014	-0.307819	-0.311891	0.413639	-0.266403	-0.328954	0.374031	-0.270278	-0.270881	0.356766	-0.275580	-0.258732	0.394935	-0.275382	-0.445202	0.077547	-0.325365	-0.261933	0.026639	-0.258195	-0.223516	0.041140	-0.351682	-0.193361	0.029930	-0.352066	-0.240186	0.830296	-0.710463	-0.223577	0.771423	-0.718728	-0.160138	0.783570	-0.717724	-0.167770	0.842895	-0.709716	-0.313864	0.377445	-0.718141	-0.332382	0.341459	-0.715372	-0.273960	0.319492	-0.706541	-0.262553	0.362058	-0.710994	-0.460830	0.070005	-0.638574	-0.294882	0.026557	-0.739785	-0.231954	0.037228	-0.660375	-0.204200	0.028463	-0.669368	
635	3.1750	-0.296013	1.608405	-0.491690	-0.290761	1.595574	-0.708346	-0.225098	1.595139	-0.303827	-0.147481	1.537960	-0.515106	-0.153250	1.092260	-0.392379	-0.162696	1.088063	-0.611462	-0.208849	1.140465	-0.340203	-0.235761	1.136861	-0.665895	-0.339482	1.123122	-0.435828	-0.351939	1.117453	-0.548059	-0.351702	1.129306	-0.487802	-0.236295	0.842901	-0.303975	-0.221045	0.786776	-0.291327	-0.156572	0.801497	-0.294021	-0.165020	0.860764	-0.307867	-0.312491	0.415367	-0.266602	-0.329518	0.375771	-0.270443	-0.271412	0.358560	-0.275567	-0.259315	0.396683	-0.275557	-0.444731	0.079081	-0.325361	-0.261902	0.026660	-0.258316	-0.223428	0.041099	-0.351697	-0.193318	0.029926	-0.352118	-0.239641	0.832272	-0.710216	-0.223002	0.773386	-0.718314	-0.159574	0.785495	-0.716804	-0.167226	0.844831	-0.708911	-0.313969	0.379272	-0.717763	-0.332432	0.343272	-0.715048	-0.273993	0.321392	-0.706166	-0.262639	0.363968	-0.710562	-0.460365	0.071667	-0.638646	-0.294786	0.026634	-0.739477	-0.231794	0.037124	-0.660266	-0.204103	0.028457	-0.669286	
